<svg width="21" height="21" viewBox="0 0 21 21" fill="none" xmlns="http://www.w3.org/2000/svg">
<circle cx="10.5" cy="10.4277" r="10" fill="#00A0AA"/>
<path d="M13.5775 9.075L9.14801 13.1163C9.10943 13.1516 9.06359 13.1796 9.01312 13.1988C8.96264 13.2179 8.90852 13.2277 8.85387 13.2277C8.79921 13.2277 8.7451 13.2179 8.69462 13.1988C8.64415 13.1796 8.5983 13.1516 8.55973 13.1163L6.62184 11.3482C6.58321 11.313 6.55257 11.2711 6.53166 11.2251C6.51076 11.1791 6.5 11.1297 6.5 11.0799C6.5 11.03 6.51076 10.9807 6.53166 10.9346C6.55257 10.8886 6.58321 10.8467 6.62184 10.8115C6.66047 10.7763 6.70632 10.7483 6.75679 10.7292C6.80726 10.7102 6.86135 10.7003 6.91598 10.7003C6.97061 10.7003 7.0247 10.7102 7.07517 10.7292C7.12564 10.7483 7.1715 10.7763 7.21013 10.8115L8.85421 12.3115L12.9899 8.5389C13.0679 8.46772 13.1737 8.42773 13.284 8.42773C13.3943 8.42773 13.5001 8.46772 13.5782 8.5389C13.6562 8.61007 13.7 8.70661 13.7 8.80726C13.7 8.90792 13.6562 9.00446 13.5782 9.07563L13.5775 9.075Z" fill="white"/>
</svg>
